<svg id="visual" viewBox="0 0 900 600" width="900" height="600" xmlns="http://www.w3.org/2000/svg" xmlns:xlink="http://www.w3.org/1999/xlink" version="1.1"><rect x="0" y="0" width="900" height="600" fill="#001122"></rect><g transform="translate(839.3285129093615 7.013145812449636)"><path d="M219.8 -259.4C291.2 -250.8 359.6 -194.9 386.2 -123.1C412.8 -51.3 397.5 36.5 345 85.5C292.5 134.6 202.7 145 139 173.3C75.2 201.6 37.6 247.8 0.9 246.6C-35.9 245.4 -71.7 196.7 -127.2 165.7C-182.7 134.8 -257.8 121.5 -274.1 85.7C-290.4 49.9 -247.9 -8.4 -209 -49.2C-170 -90 -134.6 -113.3 -100.4 -134C-66.1 -154.7 -33.1 -172.8 20.6 -201.2C74.3 -229.5 148.5 -268.1 219.8 -259.4" fill="#C62368"></path></g></svg>